<svg xmlns="http://www.w3.org/2000/svg" width="48" height="48" fill="#565656"><path d="M39.6,16.7c-0.7-0.7-1.6-1.1-2.6-1.1h-2.8v-4c0-2.7-1-5.1-3-7.2c-1.9-2-4.3-3-7.2-3c-2.7,0-5.1,1-7.2,3c-2,1.9-3,4.3-3,7.2
	v4H11c-1,0-1.9,0.4-2.6,1.1c-0.7,0.7-1.1,1.6-1.1,2.6V41c0,1,0.4,1.9,1.1,2.6c0.7,0.7,1.6,1.1,2.6,1.1h26c1,0,1.9-0.4,2.6-1.1
	c0.7-0.7,1.1-1.6,1.1-2.6V19.3C40.8,18.3,40.4,17.4,39.6,16.7z M24,5.8c1.6,0,2.9,0.5,4.1,1.7c1.1,1.1,1.7,2.4,1.7,4.1v4H18.2v-4
	c0-1.6,0.5-2.9,1.7-4.1C21.1,6.3,22.4,5.8,24,5.8z M36.2,20v20.2H11.8V20H36.2z"/>
</svg>
