<svg width="22" height="22" viewBox="0 0 22 22" fill="none" xmlns="http://www.w3.org/2000/svg">
<circle cx="14.8497" cy="19.2501" r="1.64998" fill="black"/>
<ellipse cx="6.59994" cy="19.2501" rx="2.19997" ry="1.64998" fill="black"/>
<path d="M19.2498 4.95024L15.9499 1.65028L11.5499 0.550293L6.59997 2.20027C5.68331 3.85025 3.74 7.26021 3.3 7.70021C2.75001 8.2502 3.3 11.5502 3.3 12.1002C3.3 12.5402 2.20002 13.7501 1.65002 14.3001L4.39999 17.6001L9.89993 18.7001L16.4998 17.6001L17.5998 17.0501L20.3498 13.2001V8.2502L19.2498 4.95024Z" fill="white"/>
<path d="M20.6828 5.66066C19.1442 2.38132 16.4204 0.443962 12.8055 0.0589655C10.0074 -0.236657 7.50631 0.580086 5.37096 2.49132C3.30023 4.3558 2.21536 6.71528 2.14249 9.501C2.13149 9.9135 2.14249 10.326 2.14249 10.7385V11.316C2.13012 12.218 1.67499 12.8738 0.856877 13.1736L0.641004 13.2093C0.537279 13.2093 0.435094 13.2344 0.343228 13.2826C0.251363 13.3308 0.172563 13.4005 0.113599 13.4858C0.0546347 13.5712 0.0172692 13.6696 0.00471247 13.7725C-0.00784426 13.8755 0.00478336 13.98 0.0415101 14.077L0.141884 14.3396C0.682254 15.7682 2.71723 17.7867 4.1981 18.371L4.23935 18.3875L4.30259 18.4109L5.8522 18.7217C5.96228 18.5051 6.14022 18.3305 6.35885 18.2246C6.57748 18.1187 6.82478 18.0872 7.06295 18.1351C7.30113 18.183 7.51709 18.3075 7.67784 18.4896C7.8386 18.6717 7.9353 18.9015 7.95319 19.1438L9.52754 19.46H10.9342C11.2394 19.46 11.5502 19.46 11.8568 19.4367H11.9434C12.4702 19.415 12.9954 19.3636 13.5164 19.2827C13.746 19.2469 13.977 19.2002 14.2039 19.1452C14.683 19.0287 15.1524 18.8751 15.6077 18.6859C16.1237 18.4749 16.6198 18.2182 17.09 17.9187C19.0746 16.6596 20.5339 14.7221 21.1962 12.467C21.8584 10.2119 21.6784 7.79291 20.6897 5.66066H20.6828ZM19.1346 13.1832C18.6242 14.2573 17.881 15.2041 16.9589 15.955C16.0368 16.7059 14.9589 17.2419 13.8038 17.5241C13.2997 17.6426 12.7863 17.7171 12.2693 17.7468C12.1221 17.7578 11.9805 17.7661 11.8471 17.7729C11.3357 17.8059 10.8228 17.799 10.281 17.7922H9.99366C9.79376 17.7894 9.5945 17.7687 9.3983 17.7303L9.1563 17.6808L5.30634 16.9081L4.84296 16.8159C4.79562 16.8072 4.74947 16.7929 4.70547 16.7733C4.0496 16.4763 3.16548 15.7256 2.51236 14.9721C2.40273 14.8438 2.34841 14.6772 2.3613 14.5089C2.37418 14.3407 2.45322 14.1843 2.58111 14.0742C3.35248 13.417 3.79247 12.46 3.80897 11.3242V10.7192C3.80897 10.3315 3.8021 9.92862 3.80897 9.54638C3.87085 7.2089 4.74672 5.30042 6.48195 3.73293C8.25156 2.1517 10.3182 1.47383 12.6268 1.71858C15.6737 2.04307 17.8751 3.60918 19.1717 6.36878C19.6721 7.43605 19.9285 8.60143 19.922 9.78019C19.9156 10.9589 19.6466 12.1215 19.1346 13.1832Z" fill="black"/>
<path d="M9.53985 8.50444C9.37668 8.50444 9.21718 8.45606 9.08151 8.36541C8.94584 8.27476 8.8401 8.14591 8.77765 7.99516C8.71521 7.84441 8.69888 7.67854 8.73071 7.5185C8.76254 7.35847 8.84111 7.21147 8.95649 7.09609C9.07187 6.98072 9.21887 6.90214 9.3789 6.87031C9.53893 6.83848 9.70481 6.85482 9.85556 6.91726C10.0063 6.9797 10.1352 7.08544 10.2258 7.22111C10.3165 7.35678 10.3648 7.51628 10.3648 7.67945C10.3648 7.89825 10.2779 8.10809 10.1232 8.26281C9.96849 8.41752 9.75865 8.50444 9.53985 8.50444ZM16.9717 7.66295C16.9682 7.87948 16.8811 8.08627 16.7286 8.24005C16.5761 8.39382 16.37 8.48265 16.1535 8.48794C16.0443 8.49016 15.9357 8.47039 15.8342 8.4298C15.7327 8.38922 15.6404 8.32864 15.5628 8.25168C15.4852 8.17472 15.4239 8.08294 15.3825 7.98181C15.341 7.88067 15.3204 7.77224 15.3217 7.66295C15.3198 7.44415 15.405 7.23359 15.5584 7.07758C15.7119 6.92157 15.921 6.83291 16.1398 6.83108C16.3586 6.82926 16.5692 6.91443 16.7252 7.06786C16.8812 7.22128 16.9698 7.4304 16.9717 7.6492V7.66295ZM9.15623 17.6784C8.79212 17.1318 8.24629 16.7318 7.61547 16.5492C6.98464 16.3666 6.30954 16.4132 5.70979 16.6808C5.11004 16.9483 4.62436 17.4195 4.33881 18.0109C4.05325 18.6023 3.98627 19.2757 4.14971 19.9118C4.31315 20.5478 4.69648 21.1055 5.23177 21.4859C5.76705 21.8664 6.41974 22.0451 7.07417 21.9904C7.72861 21.9356 8.34254 21.651 8.80719 21.1869C9.27184 20.7228 9.55721 20.1092 9.61272 19.4548C9.6206 19.3767 9.62427 19.2982 9.62372 19.2197C9.62389 18.671 9.46119 18.1345 9.15623 17.6784ZM6.8435 20.3321C6.62696 20.332 6.41514 20.2688 6.23402 20.1501C6.05291 20.0314 5.91037 19.8625 5.8239 19.6639C5.73742 19.4654 5.71077 19.246 5.74721 19.0325C5.78365 18.8191 5.8816 18.6209 6.02905 18.4623C6.17649 18.3037 6.36701 18.1916 6.57725 18.1397C6.78748 18.0879 7.00829 18.0985 7.21257 18.1703C7.41686 18.2421 7.59575 18.372 7.72729 18.544C7.85884 18.716 7.93732 18.9226 7.95311 19.1386V19.2197C7.95275 19.5141 7.83582 19.7965 7.62788 20.0049C7.41995 20.2134 7.13793 20.331 6.8435 20.3321ZM17.083 17.919C16.8079 17.398 16.3746 16.9777 15.8455 16.7186C15.2073 17.0801 14.522 17.3513 13.8092 17.5244C13.3051 17.6429 12.7917 17.7175 12.2747 17.7471C11.9978 18.1883 11.8514 18.6988 11.8526 19.2197C11.8526 19.2953 11.8526 19.3682 11.8622 19.4425C11.8951 19.8538 12.0192 20.2527 12.2255 20.6101C12.4318 20.9675 12.7151 21.2745 13.0548 21.5087C13.3945 21.743 13.7822 21.8986 14.1896 21.9644C14.597 22.0301 15.0139 22.0043 15.4101 21.8888C15.8062 21.7732 16.1717 21.5709 16.4799 21.2965C16.7882 21.0222 17.0314 20.6826 17.192 20.3024C17.3526 19.9223 17.4265 19.5111 17.4084 19.0989C17.3902 18.6866 17.2805 18.2835 17.0872 17.919H17.083ZM14.6273 20.3321C14.3435 20.3319 14.0704 20.2233 13.864 20.0286C13.6575 19.8339 13.5331 19.5677 13.5163 19.2843V19.2197C13.5139 18.971 13.5949 18.7287 13.7466 18.5315C13.8982 18.3343 14.1116 18.1938 14.3526 18.1323C14.5936 18.0708 14.8483 18.092 15.0759 18.1924C15.3034 18.2928 15.4907 18.4667 15.6077 18.6862C15.698 18.8495 15.7453 19.0331 15.7452 19.2197C15.745 19.3662 15.7159 19.5112 15.6596 19.6465C15.6033 19.7817 15.5209 19.9045 15.417 20.0078C15.3132 20.1112 15.19 20.193 15.0545 20.2486C14.9189 20.3043 14.7738 20.3326 14.6273 20.3321Z" fill="black"/>
<path fill-rule="evenodd" clip-rule="evenodd" d="M8.86837 10.2107C9.3043 10.0782 9.76513 10.3241 9.89765 10.7601C10.0882 11.3869 10.4752 11.9359 11.0015 12.326C11.5279 12.7161 12.1656 12.9267 12.8208 12.9267C13.4759 12.9267 14.1137 12.7161 14.6401 12.326C15.1664 11.9359 15.5534 11.3869 15.7439 10.7601C15.8764 10.3241 16.3373 10.0782 16.7732 10.2107C17.2091 10.3432 17.4551 10.804 17.3226 11.24C17.0291 12.2053 16.4331 13.0507 15.6226 13.6515C14.812 14.2523 13.8297 14.5767 12.8208 14.5767C11.8118 14.5767 10.8296 14.2523 10.019 13.6515C9.20844 13.0507 8.61245 12.2053 8.319 11.24C8.18648 10.804 8.43244 10.3432 8.86837 10.2107Z" fill="black"/>
</svg>
